Coordinates
version=1
nRows=11
nColumns=40
inDegrees=yes

Units are S.I. units (second, meters, Newtons, ...)
If the header above contains a line with 'inDegrees', this indicates whether rotational values are in degrees (yes) or radians (no).

endheader
time	pelvis_tilt	pelvis_list	pelvis_rotation	pelvis_tx	pelvis_ty	pelvis_tz	hip_flexion_r	hip_adduction_r	hip_rotation_r	knee_angle_r	knee_angle_r_beta	ankle_angle_r	subtalar_angle_r	mtp_angle_r	hip_flexion_l	hip_adduction_l	hip_rotation_l	knee_angle_l	knee_angle_l_beta	ankle_angle_l	subtalar_angle_l	mtp_angle_l	lumbar_extension	lumbar_bending	lumbar_rotation	arm_flex_r	arm_add_r	arm_rot_r	elbow_flex_r	pro_sup_r	wrist_flex_r	wrist_dev_r	arm_flex_l	arm_add_l	arm_rot_l	elbow_flex_l	pro_sup_l	wrist_flex_l	wrist_dev_l
      0.18000000	      2.22633123	     -6.80084140	     79.92882445	      0.24940118	      0.87945635	      1.80980376	    -16.67422874	      2.74796812	     11.88899468	     -5.47496206	     -0.09555611	     16.19108105	      0.00000000	      0.00000000	     35.31059114	     -9.17915491	     -3.60288158	      0.79318768	      0.01384374	     -1.18379451	      0.00000000	      0.00000000	     -5.04160030	      1.65706293	      6.89889731	      0.00000000	      0.00000000	      0.00000000	      0.00000000	      0.00000000	      0.00000000	      0.00000000	      0.00000000	      0.00000000	      0.00000000	      0.00000000	      0.00000000	      0.00000000	      0.00000000
      0.19000000	      2.34223621	     -6.87391282	     79.86675555	      0.24915318	      0.87579798	      1.79500337	    -17.55628841	      2.65396333	     12.16512235	     -5.18141372	     -0.09043273	     16.81275640	      0.00000000	     -0.00000000	     35.32930409	     -9.18219870	     -3.35499419	     -0.18972943	     -0.00331140	     -0.73619596	     -0.00000000	     -0.00000000	     -4.90910538	      1.68889424	      6.93655236	     -0.00000000	      0.00000000	     -0.00000000	      0.00000000	      0.00000000	      0.00000000	      0.00000000	      0.00000000	      0.00000000	     -0.00000000	      0.00000000	      0.00000000	     -0.00000000	     -0.00000000
      0.20000000	      2.43316123	     -7.10656588	     79.89508292	      0.24869700	      0.87211395	      1.78020022	    -18.07897235	      2.61040510	     12.09580390	     -4.60751045	     -0.08041623	     16.67256416	      0.00000000	      0.00000000	     35.79393369	     -9.11825939	     -3.54853679	     -0.25884448	     -0.00451769	     -0.61530920	      0.00000000	      0.00000000	     -4.59653624	      1.71354957	      7.01270894	      0.00000000	      0.00000000	      0.00000000	      0.00000000	      0.00000000	      0.00000000	      0.00000000	      0.00000000	      0.00000000	      0.00000000	      0.00000000	      0.00000000	      0.00000000	      0.00000000
      0.21000000	      2.17789798	     -6.85786713	     79.76461148	      0.24812984	      0.86949335	      1.76472198	    -19.08852319	      2.03688110	     12.24905437	     -3.97110396	     -0.06930884	     17.73001770	     -0.00000000	      0.00000000	     35.50601419	     -8.66934692	     -3.81512957	     -0.19970645	     -0.00348554	     -0.33305424	      0.00000000	     -0.00000000	     -4.72065337	      1.28736634	      7.02012299	     -0.00000000	     -0.00000000	      0.00000000	      0.00000000	      0.00000000	      0.00000000	      0.00000000	      0.00000000	     -0.00000000	      0.00000000	      0.00000000	      0.00000000	     -0.00000000	     -0.00000000
      0.22000000	      2.00607314	     -6.87386780	     79.77171635	      0.24733478	      0.86675997	      1.74933765	    -19.65701264	      1.65349699	     12.25170978	     -3.08145249	     -0.05378149	     18.00627092	      0.00000000	      0.00000000	     35.79387431	     -8.27171191	     -4.13068667	      0.69055603	      0.01205248	     -0.56990453	      0.00000000	      0.00000000	     -4.56892715	      1.00502255	      6.94260347	      0.00000000	      0.00000000	      0.00000000	      0.00000000	      0.00000000	      0.00000000	      0.00000000	      0.00000000	      0.00000000	      0.00000000	      0.00000000	      0.00000000	      0.00000000	      0.00000000
      0.23000000	      1.77845468	     -6.85674923	     79.80469239	      0.24647711	      0.86439320	      1.73376070	    -20.14545377	      1.22351292	     12.19826172	     -2.00981655	     -0.03507792	     18.15150582	      0.00000000	      0.00000000	     36.13075960	     -7.81164129	     -4.46289628	      2.03608927	      0.03553646	     -1.20569078	      0.00000000	      0.00000000	     -4.43201647	      0.61971744	      6.90010352	      0.00000000	      0.00000000	      0.00000000	      0.00000000	      0.00000000	      0.00000000	      0.00000000	      0.00000000	      0.00000000	      0.00000000	      0.00000000	      0.00000000	      0.00000000	      0.00000000
      0.24000000	      1.52755257	     -6.81216304	     79.87145467	      0.24546673	      0.86242459	      1.71797543	    -20.55080686	      0.77236059	     12.11084128	     -0.76480663	     -0.01334839	     18.08139811	      0.00000000	      0.00000000	     36.51447248	     -7.31546222	     -4.70001577	      3.75610714	      0.06555644	     -2.24767201	      0.00000000	      0.00000000	     -4.31114351	      0.21650041	      6.84103625	      0.00000000	      0.00000000	      0.00000000	      0.00000000	      0.00000000	      0.00000000	      0.00000000	      0.00000000	      0.00000000	      0.00000000	      0.00000000	      0.00000000	      0.00000000	      0.00000000
      0.25000000	      1.22144489	     -6.78139020	     79.83765428	      0.24449437	      0.86095348	      1.70208323	    -20.73323711	      0.24639407	     12.27700900	      0.77715988	      0.01356400	     17.38588358	      0.00000000	      0.00000000	     36.78451037	     -6.79448765	     -4.32693470	      5.48408018	      0.09571526	     -3.08426110	      0.00000000	      0.00000000	     -4.16556274	     -0.26103747	      6.97812586	      0.00000000	      0.00000000	      0.00000000	      0.00000000	      0.00000000	      0.00000000	      0.00000000	      0.00000000	      0.00000000	      0.00000000	      0.00000000	      0.00000000	      0.00000000	      0.00000000
      0.26000000	      1.03924924	     -6.62147850	     80.07129434	      0.24325603	      0.85978175	      1.68581891	    -21.04293128	     -0.09108830	     11.80334617	      2.37293932	      0.04141560	     17.20876397	      0.00000000	      0.00000000	     37.31585678	     -6.35727950	     -4.92262145	      7.93281722	      0.13845378	     -5.39601032	      0.00000000	      0.00000000	     -4.13126855	     -0.60832849	      6.63140456	      0.00000000	      0.00000000	      0.00000000	      0.00000000	      0.00000000	      0.00000000	      0.00000000	      0.00000000	      0.00000000	      0.00000000	      0.00000000	      0.00000000	      0.00000000	      0.00000000
      0.27000000	      0.84471347	     -6.45503255	     80.22994189	      0.24202096	      0.85918611	      1.66946231	    -21.14117533	     -0.46075055	     11.60280950	      4.24619521	      0.07411009	     16.28725692	      0.00000000	      0.00000000	     37.65204804	     -5.90345095	     -4.76847287	     10.23269164	      0.17859416	     -7.09762626	      0.00000000	      0.00000000	     -4.11037100	     -0.97640184	      6.55617223	      0.00000000	      0.00000000	      0.00000000	      0.00000000	      0.00000000	      0.00000000	      0.00000000	      0.00000000	      0.00000000	      0.00000000	      0.00000000	      0.00000000	      0.00000000	      0.00000000
      0.28000000	      0.70047998	     -6.26198510	     80.42264434	      0.24071293	      0.85910771	      1.65295299	    -21.06077417	     -0.76453444	     11.31402654	      6.40625642	      0.11181027	     14.94834325	      0.00000000	      0.00000000	     37.92749242	     -5.48539249	     -4.51257594	     12.58348059	      0.21962317	     -8.64869580	      0.00000000	      0.00000000	     -4.11233880	     -1.28396583	      6.41110905	      0.00000000	      0.00000000	      0.00000000	      0.00000000	      0.00000000	      0.00000000	      0.00000000	      0.00000000	      0.00000000	      0.00000000	      0.00000000	      0.00000000	      0.00000000	      0.00000000
